<?xml version="1.0" encoding="UTF-8"?>
<svg id="Capa_1" data-name="Capa 1" xmlns="http://www.w3.org/2000/svg" viewBox="0 0 313.02 80">
  <g>
    <path d="M211.03,14.5v28.33c1.49-.46,1.74-1.89,2.43-2.66,2.89-3.25,5.97-6.3,8.78-9.55.27-.31,1.13-2.52,1.83-2.52h10.77l-14.01,16.43,15.52,20.22h-12.09l-3.91-7.02c-1.52-.77-4.52-6.6-5.72-6.59-1.46,0-2.32,3.29-3.59,3.98v9.63h-9.44V14.5h9.44Z" fill="#303e54"/>
    <path d="M132.07,40.19c.52-3.43,1.87-6.92,4.53-9.26,6.39-5.62,20.88-4.52,24.87,3.47.32.64,1.58,4.02,1.58,4.47v25.88h-8.31c-.69-1.47.07-2.65,0-4.15-.9.69-1.72,1.78-2.66,2.43-3.96,2.75-8.91,3.01-13.52,1.86-12.19-3.04-10.25-20.32,2.19-22.25,3.47-.54,7.53.34,10.76-.19,1.72-.28,2.38-1.64,2.46-3.25.23-4.43-8.27-4.92-11.07-2.72-1.57,1.23-1.55,3.72-1.76,3.72h-9.07ZM153.98,47.37c-3.34,5.19-13.41-1.74-14.5,5.36-.74,4.87,6.08,5.87,9.58,4.64,4.82-1.69,5.18-5.35,4.92-10Z" fill="#303e54"/>
    <path d="M286.2,28.1l8.5,24.94,8.88-24.94h9.44l-13.7,37.49c-1.62,5.56-7.71,13.88-14.07,13.88h-5.86v-8.31c5.33.76,8.99-1.79,10.15-6.99l-13.17-36.08h9.82Z" fill="#303e54"/>
    <path d="M197.05,38.68h-9.07c-.12,0-.49-1.61-.97-2.24-2.73-3.59-11.71-2.28-10.68,2.72.17.8,1.34,2.14,2.11,2.44,2.43.97,7.08.93,9.99,1.72,4.15,1.13,8.34,3.81,8.95,8.42,2.35,17.72-30.49,18.73-30.95,1.29h9.44c.13,0,.45,1.8.81,2.4,2.47,4.1,12.54,3.64,11.64-2.56-.48-3.28-7.88-3.15-10.64-3.73-4.26-.9-9.4-2.64-10.09-7.67-2.48-18.07,27.14-19.66,29.43-2.8Z" fill="#303e54"/>
    <polygon points="133.58 14.5 133.58 23.19 119.98 23.19 119.98 64.37 110.54 64.37 110.54 23.19 96.56 23.19 96.56 14.5 133.58 14.5" fill="#303e54"/>
    <path d="M275.25,21.3h-5.48c-.09,0-1.45.74-1.58.87-1.28,1.21-1.32,4.26-1.25,5.93h8.69v8.31h-8.69v28.33h-8.88s-.57-.53-.57-.57v-27.77h-6.04v-8.31h6.04c-.28-9.57,4.32-16.06,14.5-15.06.99.1,2.6.26,3.26.9v7.37Z" fill="#303e54"/>
    <rect x="238.98" y="28.1" width="9.44" height="36.64" fill="#303e54"/>
    <path d="M243.42,11.95c8.01-.45,8.58,13.14-1.2,11.59-6.02-.95-5.87-11.2,1.2-11.59Z" fill="#303e54"/>
  </g>
  <g>
    <rect width="80.59" height="80" rx="13.44" ry="13.44" fill="#4e46dd"/>
    <path d="M67.67,21.63l-1.98-1.91c-2.05-1.98-5.32-1.91-7.3.14l-24.53,25.52-11.82-11.58c-2.04-1.99-5.3-1.96-7.3.08l-1.92,1.96c-1.99,2.04-1.96,5.3.08,7.3l16.82,16.47c.24.23.49.43.76.61l.05.05c2.05,1.98,5.32,1.91,7.3-.14l30-31.21c1.98-2.05,1.91-5.32-.14-7.3Z" fill="#ffb200"/>
  </g>
</svg>